<svg width="250" height="162" viewBox="0 0 250 162" xmlns="http://www.w3.org/2000/svg">
  <defs>
    <linearGradient x1=".07%" y1="49.99%" x2="100.1%" y2="49.99%" id="a">
      <stop stop-color="#018DBA" stop-opacity=".3" offset="0%"/>
      <stop stop-color="#018DBA" stop-opacity=".2" offset="100%"/>
    </linearGradient>
  </defs>
  <g fill-rule="nonzero" fill="none">
    <path d="M131.2 15.23V12.2a13.12 13.12 0 0 0-26.15 0v3.02h26.15zM131.2 19.24h-26.15a3.02 3.02 0 0 0 0 6.02h26.15a3.02 3.02 0 0 0 0-6.02z" fill="#373752"/>
    <path d="M155.28 61.57c.34 0 .69.04 1.03.12 1.36.14 2.68.35 4.01.58V25.3a55.63 55.63 0 0 0-10.1-.93 55 55 0 0 0-31.5 9.81 1 1 0 0 1-1.23 0 55.1 55.1 0 0 0-41.63-8.95V62.2a62.68 62.68 0 0 1 4.8-.69h.22a5.03 5.03 0 0 1 1.73 9.76c-.83.22-1.69.36-2.55.4-.9.1-1.81.22-2.73.35l-.55.1a1 1 0 0 0-.93.98v10.21a55.15 55.15 0 0 1 41.63 8.94.98.98 0 0 0 1.18-.01 55.1 55.1 0 0 1 41.62-8.94V73.09a1 1 0 0 0-.97-1l-1-.15-2.03-.27a16.9 16.9 0 0 1-2.58-.39 4.7 4.7 0 0 1-3.41-3.9c-.06-.28-.1-.57-.12-.87a5.03 5.03 0 0 1 5.1-4.94zm-42.18-8.05a3.02 3.02 0 1 1 0-6.04 3.02 3.02 0 0 1 0 6.04zm10.05 0a3.02 3.02 0 1 1 2.11-.86c-.57.56-1.36.88-2.17.86h.06z" fill="#FFF"/>
    <path d="M43.72 34.18a1 1 0 0 1-.62.22v58.11c.22 0 .42-.07.59-.2a55.1 55.1 0 0 1 41.62-8.94v-10.2a1 1 0 0 0-.97-1.01l-1-.15-2.03-.26a16.9 16.9 0 0 1-2.58-.4 4.7 4.7 0 0 1-3.41-3.89c-.07-.29-.1-.58-.12-.87a5.03 5.03 0 0 1 5.03-5.04c.35 0 .7.05 1.04.12 1.35.15 2.68.35 4 .58V25.3a55 55 0 0 0-41.56 8.88zm4.37 19.28a3.02 3.02 0 1 1 3.02-3.02 3.02 3.02 0 0 1-3.02 3.08v-.06z" fill="url(#a)" opacity=".8" transform="translate(75)"/>
    <g>
      <path fill="#373752" d="M0 160.85v-29.71h21.38v5.4H5.61v8.12h14.95v5.19H5.64v11zM46.09 155.24H30.53l-2.55 5.6h-6.09l13.36-29.74h6.12l13.35 29.75h-6.2l-2.43-5.61zm-7.78-17.9l-5.53 12.67h11.05l-5.52-12.66zM78.13 131.05h5.6v29.8h-3.48l-15.64-20.1v20.07H59V131.1h4.55l14.58 18.45zM117.35 145.72c.13 7.53-4.46 15.13-14.8 15.13H90.79V131.1h11.7c10.17 0 14.75 7.27 14.86 14.62zm-21 9.73h6.12c6.76 0 9.44-4.93 9.3-9.78-.13-4.85-2.84-9.28-9.3-9.28h-6.12V155.45zM142.47 155.24H126.9l-2.55 5.6h-6.07l13.35-29.74h6.12l13.36 29.75H145l-2.53-5.61zm-7.78-17.9l-5.58 12.7h11.05l-5.47-12.7zM174.44 131.05h5.66v29.8h-3.49l-15.64-20.1v20.07h-5.61V131.1h4.54l14.59 18.45v-18.5zM209.3 138.37a11.41 11.41 0 0 0-7.57-2.98c-6.38 0-10.25 4.83-10.25 10.97 0 4.93 2.85 9.87 10.25 9.87a9.87 9.87 0 0 0 6.72-2.39v-5.28h-7.63v-4.93h12.77v12.55a14.8 14.8 0 0 1-11.86 5.36c-11.19 0-15.73-7.35-15.73-15.18 0-8.37 5.23-16.12 15.73-16.12a15.7 15.7 0 0 1 11.05 4.54l-3.49 3.59zM244.24 146.18c-.08 4.93-2.73 10.16-9.73 10.16-7.01 0-9.66-5.23-9.77-10.11-.12-4.89 2.76-10.68 9.77-10.68a9.69 9.69 0 0 1 5.44 1.52l3.78-3.79a15.28 15.28 0 0 0-9.24-2.81c-10.28 0-15.3 7.86-15.3 15.7 0 7.82 4.86 15.34 15.3 15.34 10.44 0 15.18-7.7 15.26-15.4.02-1.64-.2-3.27-.65-4.85l-4.86 4.92z"/>
      <path d="M245.76 135.1l-11.07 11.04-4.38-4.32-3 2.98 7.38 7.36 13.53-13.35a14.57 14.57 0 0 0-2.46-3.72z" fill="#BDF271"/>
    </g>
  </g>
</svg>
