<?xml version="1.0" encoding="UTF-8"?>
<svg width="174px" height="128px" viewBox="0 0 174 128" version="1.1" xmlns="http://www.w3.org/2000/svg" xmlns:xlink="http://www.w3.org/1999/xlink">
    <!-- Generator: Sketch 43.1 (39012) - http://www.bohemiancoding.com/sketch -->
    <title>Group 5</title>
    <desc>Created with Sketch.</desc>
    <defs></defs>
    <g id="Page-1" stroke="none" stroke-width="1" fill="none" fill-rule="evenodd">
        <g id="Group-5">
            <rect id="Rectangle-2" fill="#FFFFFF" x="0" y="0" width="174" height="128"></rect>
            <polygon id="Rectangle" fill="#BDF271" points="59.3828125 55.0859375 95.1132812 43.0488281 95.1132812 74.6074219 80.0195312 80.1074219"></polygon>
            <polygon id="Rectangle" fill="#B0E663" points="94.4375 42.1914062 118.679688 56.796875 115.650391 68.8183594 94.4375 83.4199219"></polygon>
            <polygon id="Rectangle" fill="#373752" points="60.1582031 56.5292969 81.2871094 80.4726562 82.2871094 112.554688 62.3398438 85.3105469"></polygon>
            <polygon id="Rectangle" fill="#08A4CC" points="81 80 117.128906 64.03125 114.394531 93.8984375 82 111.683594"></polygon>
            <polygon id="Rectangle" fill="#C1E8F1" points="46.8554688 34.0351562 87.6992188 21.3574219 95.8847656 42.9238281 59.6328125 55.5527344"></polygon>
            <polygon id="Rectangle" fill="#C1E8F1" points="38.3066406 50.7597656 59.6035156 54.9375 81.1328125 79.3125 59.6035156 79.3125"></polygon>
            <polygon id="Rectangle" fill="#C1E8F1" points="110.572266 23.7597656 140.533203 46.6523438 116.65625 63.7792969 94.8496094 41.8574219"></polygon>
            <polygon id="Rectangle" fill="#C1E8F1" points="117.722656 63 138.742188 65.3105469 94.6230469 88.3808594 79.8671875 79.5371094"></polygon>
        </g>
    </g>
</svg>