<?xml version="1.0" encoding="UTF-8"?>
<svg width="174px" height="133px" viewBox="0 0 174 133" version="1.1" xmlns="http://www.w3.org/2000/svg" xmlns:xlink="http://www.w3.org/1999/xlink">
    <!-- Generator: Sketch 43.1 (39012) - http://www.bohemiancoding.com/sketch -->
    <title>Group 6</title>
    <desc>Created with Sketch.</desc>
    <defs></defs>
    <g id="Page-1" stroke="none" stroke-width="1" fill="none" fill-rule="evenodd">
        <g id="Group-6">
            <rect id="Rectangle-2" fill="#FFFFFF" x="0" y="0" width="174" height="133"></rect>
            <polygon id="Rectangle" fill="#BDF271" points="57 23 123 23 123 103 57 103"></polygon>
            <polygon id="Rectangle" fill="#C1E8F1" points="49 29 117 29 117 111 49 111"></polygon>
            <polygon id="Rectangle" fill="#373752" points="56 38 80 38 80 55 56 55"></polygon>
            <polygon id="Rectangle" fill="#373752" points="86 39 110 39 110 41 86 41"></polygon>
            <polygon id="Rectangle" fill="#373752" points="86 44 110 44 110 45 86 45"></polygon>
            <polygon id="Rectangle" fill="#373752" points="86 48 110 48 110 49 86 49"></polygon>
            <polygon id="Rectangle" fill="#373752" points="86 52 110 52 110 53 86 53"></polygon>
            <polygon id="Rectangle" fill="#373752" points="86 56 110 56 110 57 86 57"></polygon>
            <polygon id="Rectangle" fill="#373752" points="86 60 110 60 110 61 86 61"></polygon>
            <polygon id="Rectangle" fill="#373752" points="86 64 110 64 110 65 86 65"></polygon>
            <polygon id="Rectangle" fill="#373752" points="56 62 80 62 80 64 56 64"></polygon>
            <polygon id="Rectangle" fill="#373752" points="56 67 80 67 80 68 56 68"></polygon>
            <polygon id="Rectangle" fill="#373752" points="56 71 80 71 80 72 56 72"></polygon>
            <polygon id="Rectangle" fill="#373752" points="56 75 80 75 80 76 56 76"></polygon>
            <polygon id="Rectangle" fill="#373752" points="86 71 110 71 110 73 86 73"></polygon>
            <polygon id="Rectangle" fill="#373752" points="86 76 110 76 110 77 86 77"></polygon>
            <polygon id="Rectangle" fill="#373752" points="86 80 110 80 110 81 86 81"></polygon>
            <polygon id="Rectangle" fill="#373752" points="86 84 110 84 110 85 86 85"></polygon>
            <polygon id="Rectangle" fill="#373752" points="56 83 80 83 80 85 56 85"></polygon>
            <polygon id="Rectangle" fill="#373752" points="56 88 80 88 80 89 56 89"></polygon>
            <polygon id="Rectangle" fill="#373752" points="56 92 80 92 80 93 56 93"></polygon>
            <polygon id="Rectangle" fill="#373752" points="56 96 80 96 80 97 56 97"></polygon>
            <polygon id="Rectangle" fill="#373752" points="86 88 110 88 110 89 86 89"></polygon>
            <polygon id="Rectangle" fill="#373752" points="86 92 110 92 110 93 86 93"></polygon>
            <polygon id="Rectangle" fill="#373752" points="56 100 80 100 80 101 56 101"></polygon>
            <polygon id="Rectangle" fill="#373752" points="86 96 110 96 110 97 86 97"></polygon>
            <polygon id="Rectangle" fill="#373752" points="86 100 110 100 110 101 86 101"></polygon>
        </g>
    </g>
</svg>