<?xml version="1.0" encoding="UTF-8"?>
<svg width="74px" height="74px" viewBox="0 0 74 74" version="1.1" xmlns="http://www.w3.org/2000/svg" xmlns:xlink="http://www.w3.org/1999/xlink">
    <!-- Generator: Sketch 42 (36781) - http://www.bohemiancoding.com/sketch -->
    <title>VRT-logo-screen</title>
    <desc>Created with Sketch.</desc>
    <defs>
        <polygon id="path-1" points="0 0.0172 0 74 73.9827 74 73.9827 0.0172 1.35525272e-20 0.0172"></polygon>
    </defs>
    <g id="Page-1" stroke="none" stroke-width="1" fill="none" fill-rule="evenodd">
        <g id="VRT-logo-screen" transform="translate(0.000000, -1.000000)">
            <g id="Group-3" transform="translate(0.000000, 0.983200)">
                <mask id="mask-2" fill="white">
                    <use xlink:href="#path-1"></use>
                </mask>
                <g id="Clip-2"></g>
                <path d="M36.9917,74.0002 C16.5947,74.0002 -0.0003,57.4062 -0.0003,37.0082 C-0.0003,16.6112 16.5947,0.0172 36.9917,0.0172 L73.9827,0.0172 L73.9827,37.0082 C73.9827,57.4062 57.3877,74.0002 36.9917,74.0002" id="Fill-1" fill="#5DFC71" mask="url(#mask-2)"></path>
            </g>
            <path d="M55.7056,48.0215 C59.7476,48.0215 62.8126,44.7455 62.8126,40.7045 C62.8126,40.6715 62.8126,40.6385 62.8116,40.6055 C62.8086,40.3585 62.6036,40.1615 62.3566,40.1615 L58.7686,40.1625 C58.4206,40.1625 58.1486,40.3775 58.1016,40.7955 L58.1006,40.8125 C57.9936,42.3145 57.0766,43.2385 55.7926,43.2385 C54.4266,43.2385 53.4746,42.1915 53.4746,40.5145 L53.4756,40.3205 C53.4756,40.0715 53.4716,32.5725 53.4716,32.5725 L59.8726,32.5725 C60.1226,32.5725 60.3276,32.3695 60.3276,32.1185 L60.3276,28.7145 C60.3276,28.4645 60.1226,28.2605 59.8726,28.2605 L53.4716,28.2605 L53.4716,23.3975 C53.4716,23.1465 53.2676,22.9435 53.0166,22.9435 L48.8536,22.9435 C48.6026,22.9435 48.3996,23.1465 48.3966,23.4045 L48.3966,40.1745 C48.3966,44.8715 51.4056,48.0215 55.7056,48.0215" id="Fill-4" fill="#16284A"></path>
            <path d="M38.2944,45.9389 L38.2944,39.5409 C38.4334,35.5789 41.1914,32.3949 45.1534,32.5709 C45.2194,32.5719 45.2844,32.5699 45.3514,32.5729 C45.6354,32.5829 45.8734,32.3579 45.8734,32.0729 L45.8734,28.6309 C45.8734,28.3659 45.6674,28.1469 45.4024,28.1299 C42.9324,27.9619 40.2394,28.3189 38.1044,30.9439 L38.1044,28.7669 C38.1044,28.4879 37.8774,28.2619 37.5994,28.2619 L33.7324,28.2619 C33.4544,28.2619 33.2284,28.4879 33.2284,28.7669 L33.2284,47.2229 C33.2284,47.5009 33.4544,47.7279 33.7324,47.7279 L37.7944,47.7279 C38.0734,47.7279 38.2994,47.5009 38.2994,47.2229 L38.2994,45.9309 L38.2944,45.9389 Z" id="Fill-6" fill="#16284A"></path>
            <path d="M30.1851,28.2617 L25.9461,28.2617 C25.7231,28.2617 25.5251,28.4087 25.4621,28.6237 L21.4721,41.3437 L21.3941,41.3437 L17.3291,28.6207 C17.2641,28.4077 17.0681,28.2617 16.8451,28.2617 L12.6041,28.2617 C12.2631,28.2617 12.0201,28.5937 12.1231,28.9187 L18.4721,47.3757 C18.5391,47.5857 18.7331,47.7277 18.9531,47.7277 L23.8361,47.7277 C24.0571,47.7277 24.2511,47.5857 24.3171,47.3757 L30.6661,28.9187 C30.7691,28.5937 30.5261,28.2617 30.1851,28.2617" id="Fill-8" fill="#16284A"></path>
        </g>
    </g>
</svg>